<?xml version="1.0" encoding="utf-8"?>
<!-- Generator: Adobe Illustrator 26.0.1, SVG Export Plug-In . SVG Version: 6.00 Build 0)  -->
<svg version="1.1" id="Layer_1" xmlns="http://www.w3.org/2000/svg" xmlns:xlink="http://www.w3.org/1999/xlink" x="0px" y="0px"
	 viewBox="0 0 40 22.6" style="enable-background:new 0 0 40 22.6;" xml:space="preserve">
<style type="text/css">
	.st0{fill-rule:evenodd;clip-rule:evenodd;fill:#FFFFFF;}
</style>
<g>
	<path class="st0" d="M2.4,17.9h35.3c1.3,0,2.4,1.1,2.4,2.4v0c0,1.3-1.1,2.4-2.4,2.4H2.4c-1.3,0-2.4-1.1-2.4-2.4v0
		C0,18.9,1.1,17.9,2.4,17.9z"/>
	<path class="st0" d="M2.4,8.9h35.3c1.3,0,2.4,1.1,2.4,2.4v0c0,1.3-1.1,2.4-2.4,2.4H2.4c-1.3,0-2.4-1.1-2.4-2.4v0
		C0,10,1.1,8.9,2.4,8.9z"/>
	<path class="st0" d="M2.4,0h35.3C38.9,0,40,1.1,40,2.4v0c0,1.3-1.1,2.4-2.4,2.4H2.4C1.1,4.7,0,3.7,0,2.4v0C0,1.1,1.1,0,2.4,0z"/>
</g>
</svg>
