<?xml version="1.0" encoding="utf-8"?>
<!-- Generator: Adobe Illustrator 26.0.1, SVG Export Plug-In . SVG Version: 6.00 Build 0)  -->
<svg version="1.1" id="Layer_1" xmlns="http://www.w3.org/2000/svg" xmlns:xlink="http://www.w3.org/1999/xlink" x="0px" y="0px"
	 viewBox="0 0 32 31" style="enable-background:new 0 0 32 31;" xml:space="preserve">
<style type="text/css">
	.st0{fill-rule:evenodd;clip-rule:evenodd;fill:#FFFFFF;}
</style>
<g>
	<path class="st0" d="M4,1.4l26.2,26.2c0.6,0.6,0.6,1.5,0,2.1l0,0c-0.6,0.6-1.5,0.6-2.1,0L1.9,3.5c-0.6-0.6-0.6-1.5,0-2.1l0,0
		C2.4,0.8,3.4,0.8,4,1.4z"/>
	<path class="st0" d="M1.9,27.5L28,1.4c0.6-0.6,1.5-0.6,2.1,0l0,0c0.6,0.6,0.6,1.5,0,2.1L4,29.6c-0.6,0.6-1.5,0.6-2.1,0l0,0
		C1.3,29.1,1.3,28.1,1.9,27.5z"/>
</g>
</svg>
